<mxfile host="65bd71144e">
    <diagram id="gHc8GlZMcnlM43XV82dM" name="Page-1">
        <mxGraphModel dx="796" dy="554" grid="1" gridSize="10" guides="1" tooltips="1" connect="1" arrows="1" fold="1" page="1" pageScale="1" pageWidth="850" pageHeight="1100" math="0" shadow="0">
            <root>
                <mxCell id="0"/>
                <mxCell id="1" parent="0"/>
                <mxCell id="2" value="WebGLContext" style="rounded=0;whiteSpace=wrap;html=1;verticalAlign=top;fontStyle=1" vertex="1" parent="1">
                    <mxGeometry x="110" y="200" width="210" height="250" as="geometry"/>
                </mxCell>
                <mxCell id="3" value="WebGLContext" style="rounded=0;whiteSpace=wrap;html=1;" vertex="1" parent="1">
                    <mxGeometry x="440" y="200" width="210" height="230" as="geometry"/>
                </mxCell>
                <mxCell id="4" value="VertexBuffer" style="rounded=1;whiteSpace=wrap;html=1;" vertex="1" parent="1">
                    <mxGeometry x="170" y="250" width="100" height="30" as="geometry"/>
                </mxCell>
                <mxCell id="5" value="IndexBuffer" style="rounded=1;whiteSpace=wrap;html=1;" vertex="1" parent="1">
                    <mxGeometry x="170" y="300" width="100" height="30" as="geometry"/>
                </mxCell>
                <mxCell id="6" value="InstanceBuffer" style="rounded=1;whiteSpace=wrap;html=1;" vertex="1" parent="1">
                    <mxGeometry x="170" y="350" width="100" height="30" as="geometry"/>
                </mxCell>
                <mxCell id="7" value="Texture" style="rounded=1;whiteSpace=wrap;html=1;" vertex="1" parent="1">
                    <mxGeometry x="170" y="400" width="100" height="30" as="geometry"/>
                </mxCell>
            </root>
        </mxGraphModel>
    </diagram>
</mxfile>